PathFileType	4	(X/Y/Z)	34_2_35_p1_0-671_filt_butterworth.trc
DataRate	CameraRate	NumFrames	NumMarkers	Units	OrigDataRate	OrigDataStartFrame	OrigNumFrames
60.0	60.0	6	27	m	60.0	83	671
Frame#	Time	RHip			RKnee			RAnkle			RBigToe			RSmallToe			RHeel			LHip			LKnee			LAnkle			LBigToe			LSmallToe			LHeel			Neck			Head			Nose			RShoulder			RElbow			RWrist			RThumb			RIndex			RPinky			LShoulder			LElbow			LWrist			LThumb			LIndex			LPinky			
		X1	Y1	Z1	X2	Y2	Z2	X3	Y3	Z3	X4	Y4	Z4	X5	Y5	Z5	X6	Y6	Z6	X7	Y7	Z7	X8	Y8	Z8	X9	Y9	Z9	X10	Y10	Z10	X11	Y11	Z11	X12	Y12	Z12	X13	Y13	Z13	X14	Y14	Z14	X15	Y15	Z15	X16	Y16	Z16	X17	Y17	Z17	X18	Y18	Z18	X19	Y19	Z19	X20	Y20	Z20	X21	Y21	Z21	X22	Y22	Z22	X23	Y23	Z23	X24	Y24	Z24	X25	Y25	Z25	X26	Y26	Z26	X27	Y27	Z27	
83	1.3833333333333333	0.39941081806534456	0.47493318233221665	0.9517337833628752	0.40058182835069794	0.6535809849034563	1.3750178191131148	0.3822625384678616	0.769433307005311	1.7456234114217448	0.346126210816557	0.5918369697074186	1.7820508954885081	0.40906158497518985	0.6011542988329718	1.7865586035061187	0.3533510511960967	0.8820276680092849	1.7986378472632243	0.17422998192084524	0.5260516894159617	0.9652710623879607	0.16189412876026868	0.639649227178832	1.3760892236720104	0.17422766815900037	0.7550413518905983	1.7387608527779344	0.19492891267689763	0.5558649865099621	1.7677579939977468	0.13715580043325692	0.6024252004232099	1.7778330196386203	0.18984173229405146	0.8183806374300042	1.793052577710235	0.2767638438858786	0.4130592468236429	0.442580063254856	0.2752184687047506	0.24129063310926402	0.20562207767427088	0.27251314471059934	0.23031938232112298	0.3606091476191423	0.44019911680112134	0.3975941156880278	0.5098511258156364	0.503893487462335	0.48083459205309204	0.7406381161992249	0.5012636372883762	0.3724933770895024	0.9594715903890585	0.4199076982419536	0.3336036975636805	1.0552986700526479	0.4345171781744557	0.29654225814622115	1.0854057090190767	0.49304405391857126	0.38859123239795657	1.107060184041692	0.11773980501312244	0.3991743051736794	0.5132590461712918	0.03731799610982988	0.5040727115491076	0.7592649090833103	0.12931600780282954	0.3691507208199491	0.939152879345244	0.2117409468741524	0.280437967772583	0.9792672212570214	0.19973752710865472	0.2761391655342812	1.0172429239307432	0.15645884930717222	0.32577159691368524	1.044582768611427
84	1.4	0.4005469800439229	0.4697721973069744	0.9529495900963758	0.40025146321441296	0.6529310387763445	1.3745119529864174	0.38224331715316484	0.7693975272809257	1.7455975847263714	0.3461074017623877	0.5917462244634868	1.781950229779357	0.4090412648095715	0.6009312540206827	1.7864591920998785	0.3533633232393148	0.8820369517113307	1.7985165515506345	0.1742765185777993	0.526069479899325	0.9653927013358268	0.16163625953032543	0.6385828777689084	1.37417271109906	0.17419428017347693	0.7545945412045176	1.7376938490625775	0.194847101404121	0.5560874762101038	1.7666362921943632	0.13712253514246867	0.602714013814344	1.7754936215914152	0.1891185877063064	0.8233872022072257	1.793722566948343	0.27672730345384283	0.413052710405449	0.44250496023046926	0.2731476272128874	0.24453390144584392	0.20435491258361504	0.27235865898225387	0.23035655093837745	0.3593393661096453	0.4397116259420808	0.3973640866974628	0.5098276251303799	0.5051995169639569	0.48115177232256723	0.7403019545593776	0.5004858851269072	0.3676358842331225	0.9559505471821468	0.41956935551254293	0.32983866348461455	1.0507928185128979	0.43438216065193735	0.29631123723420244	1.0835582994639281	0.49268456571916497	0.3873225665906845	1.1070214749670366	0.11707016678189416	0.3960341956498181	0.5133739856985448	0.03738944487647037	0.5038863349888982	0.7598539759365441	0.13215356585298269	0.3621088161628859	0.9349765648351422	0.21268405836842577	0.27813246965935456	0.9757900989590474	0.20093160848603317	0.2748101029169828	1.0114596709784502	0.15699046595063626	0.3293115441899192	1.0423494915914895
85	1.4166666666666667	0.4014715851799008	0.46519870629244486	0.953804035561437	0.40014857175797636	0.6527153649542866	1.3742238172496128	0.3822155468416203	0.7694107849160128	1.7455881141977148	0.34609431721283734	0.5916762968000306	1.7818393668295427	0.40904027105139995	0.6007404856502316	1.7864016316373197	0.35336936574516187	0.8821163950007231	1.7984192792700124	0.17437802713382838	0.5260791861815586	0.9654471158123491	0.16145821754952172	0.6377180707350911	1.3725857065668554	0.1739170082628946	0.7541034456409517	1.7369576241588458	0.1947264838871148	0.5564865744797637	1.7651524089461594	0.13698699165752284	0.6033359323793326	1.7732210957724683	0.18764969702524847	0.8294675510883474	1.7954502231893803	0.2766954684163462	0.4130482263169055	0.4424400457873457	0.27140382007072045	0.24692848020247182	0.20272805279719325	0.2722550386340103	0.23018230253629335	0.35724881679447223	0.43858933827746904	0.39685863307460784	0.509814882304461	0.5060810668856388	0.48130150425115	0.7395555765145974	0.49919971473322877	0.36233432385148673	0.9534364603256686	0.4189160189040867	0.3252287103046141	1.0478697127325378	0.434600741401153	0.2961500534023871	1.0821378002474271	0.49268888192610705	0.3873867542433118	1.1068957626994682	0.11679479311434884	0.39478862951596083	0.5134454073219281	0.03739445915106007	0.5037753525023398	0.7597443861727177	0.1342182655107034	0.35640976214439046	0.9303233658410767	0.21379142460973236	0.2778459155465585	0.9732593984380902	0.20353636886743617	0.2737089581172975	1.0064060275200029	0.15726020176009897	0.33178628941533994	1.039380562922084
86	1.4333333333333331	0.40191354957921066	0.46260762499437114	0.953489889457805	0.40060453019534825	0.6529939423197144	1.3742346744185918	0.3821912629117646	0.7694739839751226	1.7455983187601922	0.34608927978861526	0.5916349335994788	1.7817549361879963	0.40903140707421015	0.6007213020297488	1.7863953021425427	0.3533706000106502	0.8822446271476883	1.7983659938638568	0.17451206292833937	0.5259976345943836	0.9654035780916902	0.1614874406933157	0.6373360800224114	1.3718554445086315	0.1735585150587797	0.7536619054377288	1.7365160260816221	0.1946309285072713	0.5569935753423989	1.7640566748052091	0.13742563931635593	0.60217539684173	1.7721084037310164	0.1862183980193612	0.8323476449785796	1.797496298377815	0.2766733950162138	0.413026508283602	0.4423937376923708	0.27040739264092384	0.2478937089303936	0.20149231451393204	0.2721311757479541	0.22982530276073093	0.3551102688665504	0.43712166461933183	0.3962108044039784	0.5098122718282532	0.5063624363687704	0.4814764320545276	0.7384964541522835	0.49797627359056373	0.35848258035355696	0.9520405236447518	0.4178613194401041	0.3209905031401181	1.0457055656760694	0.4348230811918418	0.29614725575715356	1.0798889731180346	0.4926646354722672	0.3880430120853424	1.1059590366614818	0.11677004980958938	0.39476870244222884	0.5134502823637586	0.037302571002100215	0.5035627847109665	0.7583842791358606	0.13530805613719002	0.35245325388111814	0.9259516360301225	0.21533106435400698	0.2784444971841557	0.9719986222717623	0.20740493199070628	0.27121413206926936	1.0023375894602453	0.15719681480034475	0.33273693517551983	1.0368055388563782
87	1.45	0.4019264151899282	0.4622303547774365	0.9527512275665715	0.4018708263802472	0.6539026737898181	1.3748247665394606	0.3821776237342229	0.769542662985241	1.745616058945479	0.3460886863286775	0.5915955770404537	1.7817157159684653	0.40900136209870197	0.6008466755692772	1.786398182729067	0.35336546595031104	0.8823505226458705	1.7983762630805424	0.17458257957138973	0.5258090269764188	0.9652742462938246	0.1617330992709874	0.6374093139255345	1.3718988228542828	0.17331358155033993	0.7532829801209865	1.7360684753407347	0.1945806680543459	0.557363790177751	1.7636632301997497	0.13817908106069507	0.6000047901839283	1.7719681491268782	0.1860152544890975	0.8294014921981885	1.798107479669425	0.27666166073999404	0.41299319030869425	0.44236429690770795	0.2701137165193374	0.24797430353213162	0.20099442180340446	0.2720359090920524	0.2295121299008456	0.35381149295868425	0.4359558284687019	0.39568708600867053	0.5098148798134865	0.5066488541476479	0.4826440181354902	0.7375884862938167	0.4973647936634813	0.3566501877214349	0.9510257641878476	0.4167099437982069	0.3173484479320738	1.0425863616800508	0.4345979349055932	0.2960545495260369	1.0760819293405683	0.49246473162568494	0.3886508667957708	1.1039428701882237	0.11680515126268087	0.3950529007220702	0.513424166631337	0.03718455039651083	0.5030407682133295	0.7564316140103686	0.13586546180294132	0.35024633139299965	0.9229538429811983	0.21731272562855436	0.2792209965130589	0.9717555863578875	0.21123782642225075	0.2678661100361734	0.9996797470383377	0.1570013871468409	0.3329279292721059	1.0354677359703377
88	1.4666666666666666	0.40146329731855707	0.4640814211363842	0.9526304284895935	0.40362291844644493	0.6553608596227529	1.376127223475166	0.38217474040399085	0.7695695127974425	1.7456306095023084	0.34609319199282	0.5915428379406287	1.7817104156998733	0.4089688174042575	0.6009138384002012	1.7863677019527109	0.353343948878096	0.8823640775258165	1.7984591605975484	0.17440526713689022	0.5255931985234181	0.965084634399296	0.16205466234159285	0.6378493068148724	1.3724971603216185	0.17324204808360494	0.753092238833645	1.7357806448099946	0.1945574575870413	0.5573765563353184	1.763709876490248	0.13867702590296274	0.5985589748951686	1.7721764549578325	0.18716040906143352	0.8228472295788869	1.796428247617846	0.2766603251147932	0.4129625899559138	0.4423542942904331	0.27016201217893304	0.24785442851909473	0.20099301345487103	0.2720129731856813	0.2293807938918888	0.35369851405574004	0.4354064106811843	0.3954228479849337	0.5098147916645486	0.5075762638480061	0.4856974687092981	0.7368323143602085	0.4972987842535147	0.3560351156833434	0.9499000089704343	0.4159366253759342	0.3139002853940656	1.0377350723843584	0.43379704765938093	0.2955764228527471	1.0713578487895834	0.4920021565895532	0.38867733707825636	1.100673262881227	0.11682414859717451	0.39523208589249886	0.5134104241863383	0.037137937461452435	0.5023493545220711	0.7550542068725836	0.13647228790648624	0.349632677617199	0.9215344670919682	0.21979721812738778	0.27923861325407434	0.9717314705544144	0.21412329689854218	0.26518264451754503	0.9983742911767358	0.15695166569957028	0.3326865141641987	1.0350173347618974
